<svg xmlns="http://www.w3.org/2000/svg" width="512" height="80">
  <!-- database -->
  <rect x="16" y="16" width="48" height="48" fill="aqua" />
  <ellipse cx="40" cy="16" rx="24" ry="4" stroke="teal" fill="aqua" />
  <path d="M 16 32 A 24 4 0 0 0 64 32" stroke="teal" fill="aqua" />
  <path d="M 16 48 A 24 4 0 0 0 64 48" stroke="teal" fill="aqua" />
  <path d="M 16 64 A 24 4 0 0 0 64 64" stroke="teal" fill="aqua" />
  <line x1="16" y1="16" x2="16" y2="64" stroke="teal" />
  <line x1="64" y1="16" x2="64" y2="64" stroke="teal" />
  <!-- connection string -->
  <rect x="8" y="44" width="32" height="28" stroke="black" fill="white" />
  <line x1="12" y1="51" x2="32" y2="51" stroke="black" />
  <line x1="12" y1="58" x2="32" y2="58" stroke="black" />
  <line x1="12" y1="65" x2="32" y2="65" stroke="black" />
  <!-- semicolons -->
  <circle cx="36" cy="50" r="1" fill="black" />
  <line x1="36" y1="52" x2="34" y2="54" stroke="black" />
  <circle cx="36" cy="57" r="1" fill="black" />
  <line x1="36" y1="59" x2="34" y2="61" stroke="black" />
  <circle cx="36" cy="64" r="1" fill="black" />
  <line x1="36" y1="66" x2="34" y2="68" stroke="black" />
  <!-- text -->
  <text text-anchor="start" x="80" y="31" font-size="24px" fill="teal" font-family="serif" font-weight="bold">Data Connection Builder</text>
  <text text-anchor="end" x="471" y="62" font-size="12px" fill="maroon" font-family="monospace">Software by</text>
  <text text-anchor="end" x="471" y="76" font-size="12px" fill="maroon" font-family="monospace">Jeff Bourdier</text>
  <!-- JB logo -->
  <rect x="492" y="44" width="16" height="32" stroke="maroon" fill="maroon" />
  <rect x="476" y="44" width="16" height="32" stroke="maroon" fill="yellow" />
  <path d="M 491 73 H 495 L 493 65 A 6 6 0 1 0 495 58 A 6 6 0 0 0 491 47" fill="yellow" />
  <path d="M 492 73 H 488 L 490 65 A 6 6 0 1 1 488 58 A 6 6 0 0 1 492 47" fill="maroon" />
</svg>
